<svg width="1440" height="535" viewBox="0 0 1440 535" fill="none" xmlns="http://www.w3.org/2000/svg">
<svg width="1440" height="535" viewBox="0 0 1440 535" fill="none" xmlns="http://www.w3.org/2000/svg">
<path d="M0 -50H1440V427.735L720 535L0 427.735V-50Z" fill="#FAFAFA"/>
<mask id="mask0_1090_933" style="mask-type:alpha" maskUnits="userSpaceOnUse" x="0" y="-50" width="1440" height="585">
<path d="M0 -50H1440V427.735L720 535L0 427.735V-50Z" fill="#FCE9EB"/>
</mask>
<g mask="url(#mask0_1090_933)">
<path d="M112 -622V1104.78" stroke="#E8E8E8"/>
<path d="M240 -622V1104.78" stroke="#E8E8E8"/>
<path d="M368 -622V1104.78" stroke="#E8E8E8"/>
<path d="M496 -622V1104.78" stroke="#E8E8E8"/>
<path d="M624 -622V1104.78" stroke="#E8E8E8"/>
<path d="M752 -622V1104.78" stroke="#E8E8E8"/>
<path d="M880 -622V1104.78" stroke="#E8E8E8"/>
<path d="M1008 -622V1104.78" stroke="#E8E8E8"/>
<path d="M1136 -622V1104.78" stroke="#E8E8E8"/>
<path d="M1264 -622V1104.78" stroke="#E8E8E8"/>
<path d="M1392 -622V1104.78" stroke="#E8E8E8"/>
<path d="M48 -619.779V1107" stroke="#E8E8E8"/>
<path d="M48 -619.779V1107" stroke="#E8E8E8"/>
<path d="M176 -619.779V1107" stroke="#E8E8E8"/>
<path d="M304 -619.779V1107" stroke="#E8E8E8"/>
<path d="M432 -619.779V1107" stroke="#E8E8E8"/>
<path d="M560 -619.779V1107" stroke="#E8E8E8"/>
<path d="M688 -619.779V1107" stroke="#E8E8E8"/>
<path d="M816 -619.779V1107" stroke="#E8E8E8"/>
<path d="M944 -619.779V1107" stroke="#E8E8E8"/>
<path d="M1072 -619.779V1107" stroke="#E8E8E8"/>
<path d="M1200 -619.779V1107" stroke="#E8E8E8"/>
<path d="M1328 -619.779V1107" stroke="#E8E8E8"/>
<path d="M1584 18L-141 18" stroke="#E8E8E8"/>
<path d="M1584 146L-141 146" stroke="#E8E8E8"/>
<path d="M1584 275L-141 275" stroke="#E8E8E8"/>
<path d="M1584 403L-141 403" stroke="#E8E8E8"/>
<path d="M1584 531L-141 531" stroke="#E8E8E8"/>
<path d="M1581 82L-144 82" stroke="#E8E8E8"/>
<path d="M1581 211L-144 211" stroke="#E8E8E8"/>
<path d="M1581 339L-144 339" stroke="#E8E8E8"/>
<path d="M1581 467L-144 467" stroke="#E8E8E8"/>
</g>
</svg>

</svg>
