<svg width="1248" height="536" viewBox="0 0 1248 536" fill="none" xmlns="http://www.w3.org/2000/svg">
<mask id="mask0_665_674" style="mask-type:alpha" maskUnits="userSpaceOnUse" x="0" y="0" width="1248" height="536">
<path d="M0 0C698.533 0 693.333 0 1248 0V536C754.433 536 487.067 536 0 536V0Z" fill="#1F1F1F"/>
</mask>
<g mask="url(#mask0_665_674)">
<path d="M97.0669 -744.831V972.337" stroke="#1F1F1F" stroke-opacity="0.1"/>
<path d="M208 -744.831V972.337" stroke="#1F1F1F" stroke-opacity="0.1"/>
<path d="M318.934 -744.831V972.337" stroke="#1F1F1F" stroke-opacity="0.1"/>
<path d="M429.867 -744.831V972.337" stroke="#1F1F1F" stroke-opacity="0.1"/>
<path d="M540.8 -744.831V972.337" stroke="#1F1F1F" stroke-opacity="0.1"/>
<path d="M651.733 -744.831V972.337" stroke="#1F1F1F" stroke-opacity="0.1"/>
<path d="M762.667 -744.831V972.337" stroke="#1F1F1F" stroke-opacity="0.1"/>
<path d="M873.6 -744.831V972.337" stroke="#1F1F1F" stroke-opacity="0.1"/>
<path d="M984.533 -744.831V972.337" stroke="#1F1F1F" stroke-opacity="0.1"/>
<path d="M1095.47 -744.831V972.337" stroke="#1F1F1F" stroke-opacity="0.1"/>
<path d="M1206.4 -744.831V972.337" stroke="#1F1F1F" stroke-opacity="0.1"/>
<path d="M41.6001 -742.623V974.545" stroke="#1F1F1F" stroke-opacity="0.1"/>
<path d="M41.6001 -742.623V974.545" stroke="#1F1F1F" stroke-opacity="0.1"/>
<path d="M152.533 -742.623V974.545" stroke="#1F1F1F" stroke-opacity="0.1"/>
<path d="M263.467 -742.623V974.545" stroke="#1F1F1F" stroke-opacity="0.1"/>
<path d="M374.4 -742.623V974.545" stroke="#1F1F1F" stroke-opacity="0.1"/>
<path d="M485.333 -742.623V974.545" stroke="#1F1F1F" stroke-opacity="0.1"/>
<path d="M596.267 -742.623V974.545" stroke="#1F1F1F" stroke-opacity="0.1"/>
<path d="M707.2 -742.623V974.545" stroke="#1F1F1F" stroke-opacity="0.1"/>
<path d="M818.133 -742.623V974.545" stroke="#1F1F1F" stroke-opacity="0.1"/>
<path d="M929.066 -742.623V974.545" stroke="#1F1F1F" stroke-opacity="0.1"/>
<path d="M1040 -742.623V974.545" stroke="#1F1F1F" stroke-opacity="0.1"/>
<path d="M1150.93 -742.623V974.545" stroke="#1F1F1F" stroke-opacity="0.1"/>
<path d="M1372.8 18.894L-122.2 18.894" stroke="#1F1F1F" stroke-opacity="0.1"/>
<path d="M1372.8 147.176L-122.2 147.176" stroke="#1F1F1F" stroke-opacity="0.1"/>
<path d="M1372.8 274.464L-122.2 274.464" stroke="#1F1F1F" stroke-opacity="0.1"/>
<path d="M1372.8 401.751L-122.2 401.751" stroke="#1F1F1F" stroke-opacity="0.1"/>
<path d="M1372.8 529.039L-122.2 529.039" stroke="#1F1F1F" stroke-opacity="0.1"/>
<path d="M1370.2 83.5322L-124.799 83.5322" stroke="#1F1F1F" stroke-opacity="0.1"/>
<path d="M1370.2 210.82L-124.799 210.82" stroke="#1F1F1F" stroke-opacity="0.1"/>
<path d="M1370.2 338.107L-124.799 338.107" stroke="#1F1F1F" stroke-opacity="0.1"/>
<path d="M1370.2 465.396L-124.799 465.395" stroke="#1F1F1F" stroke-opacity="0.1"/>
</g>
</svg>
